<svg xmlns="http://www.w3.org/2000/svg" width="850.5" height="740.8" data-name="Layer 1"><path fill="#2f2e41" d="m705.6 721.7-8 .1c-63.4 0-143.2-33.9-215.6-80.8q-9-5.8-17.8-11.9l5.1-31.4L625.5 577l78.4 60 1.7 84.7z"/><path fill="#cacaca" d="m750.5 330.1-.2 1.2-2.4 13-17.1 90.2-1 5.3-2.1 11.2-3 15.4-6.4 34-1.8 9.6-.7 3.7-.2 1.3-2 10-.5 3-4.7 34.6-4 30.1 13.6 13.6-8.2 8.1-5.3 30.6H487q-13.2-8.5-26-17.6l1.8-13.4s6.1-24 3.5-26.8c-2.6-2.8-8.2-8-8.2-8l7.1-16.6 1-2.3-1.7-34.4v-.9l-.5-11.3-.1-1.5-.1-2.2-2.1-43.6v-.8l-.7-13.2-.6-12.6-.3-5.3-2.5-53.1-1.8-36.1-1.5-31.4 6.1-2 65.4-22.3 27-35.2 56.4.4 27.5.2 46 42.7 10.5 5h.1l7.5 3.7 19 9 20.2 9.7 10.3 4.9.2.1z"/><path fill="#fcc" d="M628 543.7a30.3 30.3 0 0 0 37-28l103.4-30-42.5-36.2-91.7 34a30.4 30.4 0 0 0-6.2 60.2z"/><path fill="#cacaca" d="m819.8 418.7-49.2-113.2a42.8 42.8 0 0 0-20.3-21.3 43.4 43.4 0 0 0-8.8-3.2l-1.4-.3a42.1 42.1 0 0 0-19.4.3 42.8 42.8 0 0 0-27.4 21.8 1 1 0 0 0 0 .1 43.1 43.1 0 0 0-.4 38.9l.6 1.2 34.7 69.7a18.9 18.9 0 0 1-10.5 26.2l-2.4 1-43.9 15.8a13.5 13.5 0 0 0-8.3 16.8v.3l12.4 39.4.2.5a7 7 0 0 0 .4 1 13.5 13.5 0 0 0 15.8 7.5l23.7-6.2 4.8-1.3 61.1-16.2a57.8 57.8 0 0 0 38.3-78.8z"/><path fill="#fcc" d="M557.8 540.6a30.3 30.3 0 0 1-40.7-22.5l-106.4-15 37-42 95.5 20.8a30.4 30.4 0 0 1 14.7 58.7z"/><path fill="#cacaca" d="M529.6 444.1a13.5 13.5 0 0 0-7.9-4.9l-43.7-9-4.5-1a19 19 0 0 1-12.5-9 19.2 19.2 0 0 1-2.5-8 18.9 18.9 0 0 1 1-7.5l15-45.6 9.9-29.6a41.8 41.8 0 0 0 2-11 43.3 43.3 0 0 0-9-29 42.7 42.7 0 0 0-49-13.6c-.3 0-.5.2-.8.3a42.6 42.6 0 0 0-25.3 28.4l-10.7 38.8-22 80.1a57.8 57.8 0 0 0 49 72.7l63 7.4 29 3.4a13.5 13.5 0 0 0 15-10.7 4.9 4.9 0 0 0 0-.6l.7-4.3 6-36.4v-.4a13.5 13.5 0 0 0-2.7-10.5z"/><g fill="#47e6b1" opacity=".3"><path d="M363 549.8h2.1v11.8H363v-11.8z"/><path d="M369.9 554.7v2H358v-2h11.9z"/></g><rect width="65.5" height="90" x="356.5" y="515.8" fill="#7f3f00" rx="25" ry="25"/><path fill="#7f3f00" d="M355.3 504.4s-7.5-13.5-3.8-26.4c0 0 15.7-4.2 26.4 8.1l-22.6 18.3z"/><path fill="#91531a" d="M357.5 500.9s-5.5-10-2.8-19.6c0 0 11.7-3.2 19.7 6L357.5 501v-.1zm67.6 0s5.6-10 2.9-19.6c0 0-11.7-3.2-19.7 6l16.8 13.6z"/><path fill="#7f3f00" d="M427.4 504.4s7.5-13.5 3.8-26.4c0 0-15.7-4.2-26.4 8.1l22.6 18.3z"/><path fill="#91531a" d="M425.1 500.9s5.6-10 2.9-19.6c0 0-11.7-3.2-19.7 6l16.8 13.6z"/><path fill="#7f3f00" d="m431.2 520.6-.1 3.2a39.2 39.2 0 0 1-39.8 35 39.6 39.6 0 0 1-38.7-29 36.8 36.8 0 0 1-1.1-9.2c0-21 17.8-38.2 39.8-38.2s39.9 17.1 39.9 38.2z"/><path fill="#91531a" d="m357.4 538.9-3-6.5H342l7 6.2-5 1.7s41.7 44.9 92.6 0l-4-1.4 6.2-5.4-4.5-1 1.6-3.5-6.7.3-7.9 14.6-26 11.5-38-16.5h.1z"/><circle cx="405.7" cy="524.5" r="3.6" fill="#2b1f0e"/><circle cx="375.9" cy="524.5" r="3.6" fill="#2b1f0e"/><path fill="#91531a" d="M431 523.8a39.2 39.2 0 0 1-39.7 35 39.6 39.6 0 0 1-38.7-29c2 1.8 3.8 4.5 5.4 6.2a19.4 19.4 0 0 0 4 3.5c2.5 1.5 5.5 1.9 8.3 2 2.6.1 5.5 0 7.4-1.8s2-4.5 3-6.8a11.4 11.4 0 0 1 8.5-6.1 14.3 14.3 0 0 1 10.3 2.5 7.5 7.5 0 0 1 2.1 2 19.6 19.6 0 0 1 1.4 3.4c2.3 5.6 9.8 7.9 15.4 5.6s9.4-7.9 10.8-13.8c.2-1.1.8-2.6 1.9-2.7h-.1z"/><path fill="none" stroke="#2b1f0e" stroke-linecap="round" stroke-miterlimit="10" stroke-width="2" d="M382.8 543.5s7.8 3.6 7.8-5.6m7.9 5.6s-7.9 3.6-7.9-5.6"/><ellipse cx="390.8" cy="534.1" fill="#f25f1d" rx="3.1" ry="3.9"/><ellipse cx="430.1" cy="567.7" fill="#91531a" rx="13.1" ry="15.9"/><ellipse cx="344.3" cy="563.8" fill="#91531a" rx="13.1" ry="15.9"/><path fill="#3f3d56" d="M162.9 572.7a514.1 514.1 0 0 0 45.7 49h452A16.4 16.4 0 0 1 677 638l.7 114.6a355.4 355.4 0 0 0 77.5-48.6q9.8-8 19-16.8 6-5.8 11.8-11.8a355.6 355.6 0 0 0 68.8-102.7H162.9z"/><path fill="#fff" d="M805 637.4q-5.7 6-11.8 11.8H697v-11.8h108z"/><circle cx="588.8" cy="174.7" r="68.3" fill="#fcc" data-name="ab6171fa-7d69-4734-b81c-8dff60f9761b"/><path fill="#2f2e41" d="M648.6 124.6s18-34.1-21.4-37.2c0 0-33.5-30.4-67.7-5.6 0 0-18.6 0-28.8 21.1 0 0-14.7-5.6-17.9 9.3 0 0-10.7 31 0 59 10.8 28 14.3 31 14.3 31s-17.6-58.5 25.3-61.6 90.9-30 94.4 4.2 9 42.6 9 42.6 34-48.8-7.2-62.8z" data-name="bf427902-b9bf-4946-b5d7-5c1c7e04535e"/><path fill="#472364" d="M671.7 171h-5c0-37.8-37.4-62.6-75.2-62.6a82.4 82.4 0 0 0-16.3 1.6c-6 1.2-12.4 2.7-18.6 4.5-24.3 7.5-47 22-47 56.5a78.6 78.6 0 0 0 2.6 19.9l-4.8 1.2a83.9 83.9 0 0 1-2.7-21.1c0-30.2 12.4-51 33.8-63.3 11.2-6.5 25-10.7 40.7-12.7a97.1 97.1 0 0 1 19.7-.6 76 76 0 0 1 72.8 76.6z"/><path fill="#472364" d="m680 173.8-2-14.6a15.7 15.7 0 0 0-5-9.6 15.8 15.8 0 0 0-13.2-4l-3.2.5a6.5 6.5 0 0 0-4.3 2.5 6.5 6.5 0 0 0-1.3 4.9l4.6 33.5a6.6 6.6 0 0 0 5.3 5.6 6.2 6.2 0 0 0 1.2.1 6.5 6.5 0 0 0 .9 0l3.5-.5a15.8 15.8 0 0 0 10.7-6.5l.8-1.1a16.7 16.7 0 0 0 2-10.8z"/><path fill="#fff" d="M654.6 146.7a6.4 6.4 0 0 0-2.3 2 6.5 6.5 0 0 0-1.3 4.8l4.6 33.5a6.6 6.6 0 0 0 5.3 5.6l-6.3-46v.1z"/><path fill="#3f3d56" d="m680 173.8-2-14.6a15.7 15.7 0 0 0-5-9.6l4.6 33.4a6.2 6.2 0 0 0 .4 1.6 16.7 16.7 0 0 0 2-10.8z"/><ellipse cx="633.5" cy="251.2" fill="#3f3d56" rx="2.5" ry="7" transform="rotate(-7.7 101.3 -7.7)"/><ellipse cx="632.9" cy="232.7" fill="#3f3d56" rx="2.5" ry="7" transform="rotate(-7.7 103.7 -8.3)"/><ellipse cx="650.5" cy="242.3" fill="#3f3d56" rx="2.5" ry="7" transform="rotate(-7.7 102.4 -5.6)"/><path fill="#3f3d56" d="M591.5 108.4a82.4 82.4 0 0 0-16.3 1.6c-6 1.2-12.4 2.7-18.6 4.5-9.6-.4-16.7-3-18.1-6.8 11.2-6.5 25-10.7 40.7-12.7a97.1 97.1 0 0 1 19.7-.6 5.7 5.7 0 0 1 2.7 3.8c.5 3.5-3.5 7.2-10 10.2h-.1z"/><path fill="#472364" d="m527.7 205.7-7.7-32a6 6 0 0 0-4.9-4.6 6.7 6.7 0 0 0-1 0 6 6 0 0 0-1.4.1l-3 .7a14.9 14.9 0 0 0-11 18l3.5 14.4a15.8 15.8 0 0 0 5.3 8.6 14 14 0 0 0 1.4 1 14.8 14.8 0 0 0 11.3 1.8l3-.7a5.8 5.8 0 0 0 2.2-1 6 6 0 0 0 2.3-6.3z"/><ellipse cx="456.2" cy="289.1" fill="#3f3d56" rx="2.5" ry="7" transform="rotate(-13.5 77.5 14.6)"/><ellipse cx="446.5" cy="291.2" fill="#3f3d56" rx="2.5" ry="7" transform="rotate(-13.5 77.9 13.7)"/><path fill="#fff" d="m528.2 205.6-7.7-32a6.5 6.5 0 0 0-5.3-5l10.5 43.8a6.5 6.5 0 0 0 2.5-6.8z"/><path fill="#3f3d56" d="M429.1 489.5v24.2a7.6 7.6 0 0 0 7.6 7.7h125.1v47.8h-1.6a1 1 0 0 0-1 1v3.3a1 1 0 0 0 1 1h77.6a1 1 0 0 0 1-1V570a1 1 0 0 0-1-1h-1.6v-47.7h125a7.6 7.6 0 0 0 7.7-7.7v-24.2H429.1v.1z"/><rect width="339.6" height="213" x="429" y="282.6" fill="#3f3d56" rx="4"/><circle cx="598.8" cy="373.9" r="31.3" fill="#472364"/><path fill="#3f3d56" d="m498.9 191 5.2 13.8a15.7 15.7 0 0 0 7 8.3l-11.9-31.6a6.2 6.2 0 0 0-.7-1.5 16.7 16.7 0 0 0 .4 11z"/></svg>